<svg width="120" height="104" viewBox="0 0 120 104" fill="none" xmlns="http://www.w3.org/2000/svg">
<mask id="path-1-inside-1_4056_306" fill="white">
<path fill-rule="evenodd" clip-rule="evenodd" d="M50.1119 0.582264C50.8796 0.811716 49.9059 1.25454 50.1119 2.15774C54.404 4.44348 55.4828 -2.61983 58.9108 1.10839C60.642 0.238817 63.9101 0.925711 65.6428 0.0575938C67.5886 0.67726 64.0757 0.450731 64.0872 1.10839C64.1232 2.7584 72.611 4.56917 70.3007 1.10839C70.6781 2.30096 72.4885 2.03789 73.406 2.68387C73.321 3.29915 72.4626 3.12669 71.8534 3.21C74.0354 4.05765 75.2453 2.62979 77.5469 2.1592C75.5593 3.50668 79.7319 3.00393 78.064 3.73467C78.087 4.92869 80.9892 1.7266 79.6166 4.2608C79.9983 3.42337 82.1516 4.38064 81.6878 2.68387C83.1252 2.16212 83.154 5.6682 84.2789 3.73467C85.8517 4.3821 83.7143 5.54251 84.2789 6.88707C85.7495 8.62331 88.2484 7.63242 89.4525 6.3624C87.9632 3.73028 87.1999 6.84177 86.3486 6.88707C86.5387 5.99411 85.9453 5.89619 85.3131 5.83627C87.9287 1.13324 91.7656 9.07052 92.045 5.83627C93.2031 6.06134 92.2539 8.42454 92.5607 9.51334C94.6189 9.88602 96.2234 7.10629 93.5948 8.46254C93.674 7.31528 94.9012 7.33574 96.1859 7.41174C95.5407 9.25612 95.9195 9.63903 97.7386 8.98868C96.2507 9.97956 95.1648 12.1937 93.0792 11.0903C92.8156 13.1071 96.1888 11.4366 96.1859 13.1919C96.8802 12.8455 97.1481 12.068 97.2215 11.0903C97.547 11.3811 98.7871 13.224 99.2927 11.6149C100.238 12.4641 98.9283 13.2796 100.328 14.2427C103.017 13.7706 106.582 15.4718 106.539 17.9198C108.331 18.3465 108.727 16.9391 109.648 17.9198C109.09 20.9669 109.101 21.8219 111.718 22.123C110.726 25.2301 114.381 23.6224 113.791 26.3247C112.86 23.9469 111.793 27.4647 114.305 26.8494C112.617 30.8728 118.4 30.3408 118.964 34.7297C117.719 34.9445 117.841 33.7695 116.376 34.205C116.817 34.984 117.677 35.3332 118.964 35.2543C119.075 37.3106 120.068 39.2573 117.93 38.4067C117.84 39.7221 119.09 39.6826 119.48 40.5083C119.192 41.6951 118.675 39.8711 117.93 41.033C118.005 42.0049 119.683 41.356 120 42.0838C118.427 43.554 119.79 44.9234 118.447 46.8117C120.151 45.7185 120.75 47.595 118.447 47.3378C119.948 48.4091 119.492 50.8205 118.447 52.0642C117.573 50.8497 115.807 50.5414 113.791 50.4888C114.174 52.3755 117.112 51.6682 118.447 52.5904C119.721 55.0807 116.501 54.8264 118.447 56.7921C118.033 56.5144 117.606 56.244 116.896 56.266C117.232 56.8009 118.084 56.8096 117.932 57.8444C117.51 57.7435 117.413 57.3168 116.896 57.3182C117.055 58.5459 117.907 59.4871 116.896 60.4677C115.427 60.5539 117.325 57.232 115.858 57.3182C115.112 57.6047 116.265 60.3639 116.376 61.52C113.68 64.2895 113.501 72.519 108.093 72.0265C108.321 72.6725 108.754 73.1036 109.647 73.0759C108.977 74.4993 108.704 76.3233 107.056 76.7544C106.837 75.6568 107.412 75.3631 107.574 74.6528C105.767 80.9182 101.851 85.931 95.6674 89.8858C95.424 88.7634 96.4063 88.8861 97.2201 88.8364C94.158 87.8309 93.5775 91.5562 92.0436 93.0396C89.2192 93.8595 85.5133 96.5559 84.7945 97.766C79.9321 99.3576 75.2035 102.91 69.2637 100.917C69.6007 101.452 70.4548 101.459 70.3007 102.492C68.9195 102.492 67.5396 102.492 66.1584 102.492C66.1814 101.594 65.7738 101.13 65.1228 100.917C64.1924 100.848 64.0325 101.557 63.0516 101.443C63.0675 101.952 63.6854 101.848 64.0858 101.968C60.7068 102.685 50.8191 106.158 50.6275 101.968C42.0793 100.834 36.4059 96.7854 28.8832 94.6093C26.6464 90.58 21.8833 89.1053 17.4947 87.258C17.3031 86.3636 17.898 86.2671 18.5303 86.2058C17.0756 85.4063 15.3241 84.908 15.4235 82.5287C14.7336 82.5287 14.0437 82.5287 13.3524 82.5287C10.0396 77.719 4.40948 72.5702 1.9624 66.2449C0.916732 63.5383 -0.787153 55.202 0.409743 50.4858C0.931135 48.4295 1.9696 44.1649 1.9624 40.5039C3.10168 39.9077 3.68212 38.7473 5.07058 38.4023C4.94239 37.8309 4.04076 38.0457 4.03356 37.3515C7.07981 31.6869 12.0042 27.9294 16.9747 24.2187C23.2473 24.2056 27.7554 19.6165 34.0597 18.9662C35.7924 19.4412 34.5105 20.1412 34.0597 21.0678C43.1495 18.7981 58.9799 16.1353 59.9435 29.9959C51.9469 16.8324 20.4689 26.997 12.8338 34.7238C6.51377 41.1192 4.35187 48.7964 5.06914 57.8385C6.76582 79.2418 29.1338 89.2413 47.5194 95.6586C56.5342 95.4365 62.742 95.7229 72.3661 94.6049C74.3091 94.1927 72.4007 92.7707 73.4046 91.9815C77.6045 92.5661 78.5364 89.8346 82.7248 90.4046C80.3469 88.4974 84.1738 88.4974 84.7945 88.8306C87.1768 84.4184 91.7239 82.1999 96.1845 79.901C96.003 77.3361 97.6896 76.6141 99.8097 75.1731C99.7939 74.6601 99.176 74.7653 98.7713 74.6484C100.415 73.8636 100.73 71.7342 102.914 71.4975C102.314 70.7214 102.314 70.1719 102.914 69.3959C103.552 69.6882 102.529 71.4302 104.986 70.9728C102.556 69.6253 105.508 68.3334 104.468 66.7711C106.118 66.4583 106.068 67.7546 107.054 66.7711C106.766 65.5829 106.248 67.4083 105.502 66.2449C107.046 64.6578 109.232 63.7268 110.163 61.5171C109.549 60.5583 109.712 62.7228 108.092 61.5171C111.617 56.0891 114.062 47.3933 114.304 39.9793C114.498 34.0647 111.151 31.8228 110.164 27.8973C103.449 22.2662 98.3032 18.1185 88.9383 14.2398C88.7914 13.3906 89.4266 13.3351 89.4525 12.6628C86.7044 12.4611 81.5567 12.5371 80.1366 9.51188C79.5489 9.61126 79.8485 10.0395 80.1366 10.0366C76.9204 8.84545 68.7495 9.30874 63.5673 7.41028C63.4319 7.36059 63.2979 5.89473 63.0531 5.83481C62.4453 5.91957 62.6152 6.79208 62.5346 7.41028C55.7378 7.7435 49.6841 7.41174 43.3813 8.46108C35.5389 9.76764 27.3997 16.337 21.637 10.5627C22.4623 9.12459 23.5699 7.97003 24.2252 6.36094C29.6221 6.58455 34.1893 5.96634 37.6849 4.25934C37.6028 3.64406 36.7415 3.81505 36.1323 3.73321C39.0042 1.46792 46.1208 2.94547 50.1119 0.582264ZM101.362 77.8008C101.75 77.9324 106.118 78.7391 105.503 76.2253C104.364 76.9985 101.648 76.164 101.362 77.8008ZM99.8112 79.9039C99.0349 79.9945 97.8999 79.7154 97.74 80.4271C98.9715 81.6153 100.21 79.8483 101.364 79.3763C99.7032 79.9594 99.0536 76.8845 97.74 78.8531C98.0569 79.5794 99.732 78.9305 99.8112 79.9039Z"/>
</mask>
<path fill-rule="evenodd" clip-rule="evenodd" d="M50.1119 0.582264C50.8796 0.811716 49.9059 1.25454 50.1119 2.15774C54.404 4.44348 55.4828 -2.61983 58.9108 1.10839C60.642 0.238817 63.9101 0.925711 65.6428 0.0575938C67.5886 0.67726 64.0757 0.450731 64.0872 1.10839C64.1232 2.7584 72.611 4.56917 70.3007 1.10839C70.6781 2.30096 72.4885 2.03789 73.406 2.68387C73.321 3.29915 72.4626 3.12669 71.8534 3.21C74.0354 4.05765 75.2453 2.62979 77.5469 2.1592C75.5593 3.50668 79.7319 3.00393 78.064 3.73467C78.087 4.92869 80.9892 1.7266 79.6166 4.2608C79.9983 3.42337 82.1516 4.38064 81.6878 2.68387C83.1252 2.16212 83.154 5.6682 84.2789 3.73467C85.8517 4.3821 83.7143 5.54251 84.2789 6.88707C85.7495 8.62331 88.2484 7.63242 89.4525 6.3624C87.9632 3.73028 87.1999 6.84177 86.3486 6.88707C86.5387 5.99411 85.9453 5.89619 85.3131 5.83627C87.9287 1.13324 91.7656 9.07052 92.045 5.83627C93.2031 6.06134 92.2539 8.42454 92.5607 9.51334C94.6189 9.88602 96.2234 7.10629 93.5948 8.46254C93.674 7.31528 94.9012 7.33574 96.1859 7.41174C95.5407 9.25612 95.9195 9.63903 97.7386 8.98868C96.2507 9.97956 95.1648 12.1937 93.0792 11.0903C92.8156 13.1071 96.1888 11.4366 96.1859 13.1919C96.8802 12.8455 97.1481 12.068 97.2215 11.0903C97.547 11.3811 98.7871 13.224 99.2927 11.6149C100.238 12.4641 98.9283 13.2796 100.328 14.2427C103.017 13.7706 106.582 15.4718 106.539 17.9198C108.331 18.3465 108.727 16.9391 109.648 17.9198C109.09 20.9669 109.101 21.8219 111.718 22.123C110.726 25.2301 114.381 23.6224 113.791 26.3247C112.86 23.9469 111.793 27.4647 114.305 26.8494C112.617 30.8728 118.4 30.3408 118.964 34.7297C117.719 34.9445 117.841 33.7695 116.376 34.205C116.817 34.984 117.677 35.3332 118.964 35.2543C119.075 37.3106 120.068 39.2573 117.93 38.4067C117.84 39.7221 119.09 39.6826 119.48 40.5083C119.192 41.6951 118.675 39.8711 117.93 41.033C118.005 42.0049 119.683 41.356 120 42.0838C118.427 43.554 119.79 44.9234 118.447 46.8117C120.151 45.7185 120.75 47.595 118.447 47.3378C119.948 48.4091 119.492 50.8205 118.447 52.0642C117.573 50.8497 115.807 50.5414 113.791 50.4888C114.174 52.3755 117.112 51.6682 118.447 52.5904C119.721 55.0807 116.501 54.8264 118.447 56.7921C118.033 56.5144 117.606 56.244 116.896 56.266C117.232 56.8009 118.084 56.8096 117.932 57.8444C117.51 57.7435 117.413 57.3168 116.896 57.3182C117.055 58.5459 117.907 59.4871 116.896 60.4677C115.427 60.5539 117.325 57.232 115.858 57.3182C115.112 57.6047 116.265 60.3639 116.376 61.52C113.68 64.2895 113.501 72.519 108.093 72.0265C108.321 72.6725 108.754 73.1036 109.647 73.0759C108.977 74.4993 108.704 76.3233 107.056 76.7544C106.837 75.6568 107.412 75.3631 107.574 74.6528C105.767 80.9182 101.851 85.931 95.6674 89.8858C95.424 88.7634 96.4063 88.8861 97.2201 88.8364C94.158 87.8309 93.5775 91.5562 92.0436 93.0396C89.2192 93.8595 85.5133 96.5559 84.7945 97.766C79.9321 99.3576 75.2035 102.91 69.2637 100.917C69.6007 101.452 70.4548 101.459 70.3007 102.492C68.9195 102.492 67.5396 102.492 66.1584 102.492C66.1814 101.594 65.7738 101.13 65.1228 100.917C64.1924 100.848 64.0325 101.557 63.0516 101.443C63.0675 101.952 63.6854 101.848 64.0858 101.968C60.7068 102.685 50.8191 106.158 50.6275 101.968C42.0793 100.834 36.4059 96.7854 28.8832 94.6093C26.6464 90.58 21.8833 89.1053 17.4947 87.258C17.3031 86.3636 17.898 86.2671 18.5303 86.2058C17.0756 85.4063 15.3241 84.908 15.4235 82.5287C14.7336 82.5287 14.0437 82.5287 13.3524 82.5287C10.0396 77.719 4.40948 72.5702 1.9624 66.2449C0.916732 63.5383 -0.787153 55.202 0.409743 50.4858C0.931135 48.4295 1.9696 44.1649 1.9624 40.5039C3.10168 39.9077 3.68212 38.7473 5.07058 38.4023C4.94239 37.8309 4.04076 38.0457 4.03356 37.3515C7.07981 31.6869 12.0042 27.9294 16.9747 24.2187C23.2473 24.2056 27.7554 19.6165 34.0597 18.9662C35.7924 19.4412 34.5105 20.1412 34.0597 21.0678C43.1495 18.7981 58.9799 16.1353 59.9435 29.9959C51.9469 16.8324 20.4689 26.997 12.8338 34.7238C6.51377 41.1192 4.35187 48.7964 5.06914 57.8385C6.76582 79.2418 29.1338 89.2413 47.5194 95.6586C56.5342 95.4365 62.742 95.7229 72.3661 94.6049C74.3091 94.1927 72.4007 92.7707 73.4046 91.9815C77.6045 92.5661 78.5364 89.8346 82.7248 90.4046C80.3469 88.4974 84.1738 88.4974 84.7945 88.8306C87.1768 84.4184 91.7239 82.1999 96.1845 79.901C96.003 77.3361 97.6896 76.6141 99.8097 75.1731C99.7939 74.6601 99.176 74.7653 98.7713 74.6484C100.415 73.8636 100.73 71.7342 102.914 71.4975C102.314 70.7214 102.314 70.1719 102.914 69.3959C103.552 69.6882 102.529 71.4302 104.986 70.9728C102.556 69.6253 105.508 68.3334 104.468 66.7711C106.118 66.4583 106.068 67.7546 107.054 66.7711C106.766 65.5829 106.248 67.4083 105.502 66.2449C107.046 64.6578 109.232 63.7268 110.163 61.5171C109.549 60.5583 109.712 62.7228 108.092 61.5171C111.617 56.0891 114.062 47.3933 114.304 39.9793C114.498 34.0647 111.151 31.8228 110.164 27.8973C103.449 22.2662 98.3032 18.1185 88.9383 14.2398C88.7914 13.3906 89.4266 13.3351 89.4525 12.6628C86.7044 12.4611 81.5567 12.5371 80.1366 9.51188C79.5489 9.61126 79.8485 10.0395 80.1366 10.0366C76.9204 8.84545 68.7495 9.30874 63.5673 7.41028C63.4319 7.36059 63.2979 5.89473 63.0531 5.83481C62.4453 5.91957 62.6152 6.79208 62.5346 7.41028C55.7378 7.7435 49.6841 7.41174 43.3813 8.46108C35.5389 9.76764 27.3997 16.337 21.637 10.5627C22.4623 9.12459 23.5699 7.97003 24.2252 6.36094C29.6221 6.58455 34.1893 5.96634 37.6849 4.25934C37.6028 3.64406 36.7415 3.81505 36.1323 3.73321C39.0042 1.46792 46.1208 2.94547 50.1119 0.582264ZM101.362 77.8008C101.75 77.9324 106.118 78.7391 105.503 76.2253C104.364 76.9985 101.648 76.164 101.362 77.8008ZM99.8112 79.9039C99.0349 79.9945 97.8999 79.7154 97.74 80.4271C98.9715 81.6153 100.21 79.8483 101.364 79.3763C99.7032 79.9594 99.0536 76.8845 97.74 78.8531C98.0569 79.5794 99.732 78.9305 99.8112 79.9039Z" fill="#F21430" mask="url(#path-1-inside-1_4056_306)"/>
</svg>
